<svg width="60" height="63" viewBox="0 0 141 143" fill="none" xmlns="http://www.w3.org/2000/svg">
<g filter="url(#filter0_d_0_1)">
<path d="M78.4481 69.8927C91.7424 55.5537 89.725 32.524 73.9421 18.4545C62.6934 30.5871 63.1649 30.0785 49.8707 44.4176C36.5764 58.7566 37.6592 57.5887 25.7993 70.3807C41.5822 84.4502 65.1539 84.2317 78.4481 69.8927Z" fill="#FF7575"/>
<path d="M136.243 46.3058L93.9846 27.2057L96.7226 22.1649L136.243 46.3058Z" fill="#FF7575"/>
<path d="M28.5973 70.7747L29.5051 134.139L4.84299 123.209L28.5973 70.7747Z" fill="#FF7575"/>
<path fill-rule="evenodd" clip-rule="evenodd" d="M77.7939 0.985622C90.4206 2.72404 99.6819 11.4825 98.4797 20.5482C97.2775 29.614 86.067 35.5539 73.4404 33.8155L75.6172 17.4006L77.7939 0.985622ZM85.8553 22.9415C87.5062 23.3486 89.1669 22.3713 89.5646 20.7586C89.9624 19.1458 88.9465 17.5084 87.2957 17.1013C85.6449 16.6941 83.9842 17.6714 83.5864 19.2842C83.1887 20.8969 84.2045 22.5343 85.8553 22.9415Z" fill="#FF7575"/>
</g>
<defs>
<filter id="filter0_d_0_1" x="0.842987" y="0.985626" width="139.4" height="141.153" filterUnits="userSpaceOnUse" color-interpolation-filters="sRGB">
<feFlood flood-opacity="0" result="BackgroundImageFix"/>
<feColorMatrix in="SourceAlpha" type="matrix" values="0 0 0 0 0 0 0 0 0 0 0 0 0 0 0 0 0 0 127 0" result="hardAlpha"/>
<feOffset dy="4"/>
<feGaussianBlur stdDeviation="2"/>
<feComposite in2="hardAlpha" operator="out"/>
<feColorMatrix type="matrix" values="0 0 0 0 0 0 0 0 0 0 0 0 0 0 0 0 0 0 0.25 0"/>
<feBlend mode="normal" in2="BackgroundImageFix" result="effect1_dropShadow_0_1"/>
<feBlend mode="normal" in="SourceGraphic" in2="effect1_dropShadow_0_1" result="shape"/>
</filter>
</defs>
</svg>
